<?xml version="1.0" standalone="no"?>
<!DOCTYPE svg PUBLIC "-//W3C//DTD SVG 20010904//EN"
 "http://www.w3.org/TR/2001/REC-SVG-20010904/DTD/svg10.dtd">
<svg version="1.0" xmlns="http://www.w3.org/2000/svg"
 width="1024.000000pt" height="1024.000000pt" viewBox="0 0 1024.000000 1024.000000"
 preserveAspectRatio="xMidYMid meet">

<g transform="translate(0.000000,1024.000000) scale(0.100000,-0.100000)"
fill="#000000" stroke="none">
<path d="M5170 10083 c-29 -6 -160 -89 -160 -102 0 -5 -16 -28 -35 -51 -19
-23 -35 -46 -35 -52 0 -5 -15 -28 -34 -51 -18 -23 -37 -53 -41 -67 -6 -21 -38
-83 -81 -161 -7 -12 -37 -49 -69 -84 -44 -49 -76 -74 -141 -106 -60 -30 -86
-49 -90 -65 -4 -17 -20 -27 -62 -40 -32 -10 -61 -20 -67 -24 -24 -17 -205
-110 -214 -110 -15 0 -143 -83 -159 -103 -7 -8 -42 -29 -76 -46 -35 -17 -66
-37 -69 -46 -4 -8 -30 -30 -60 -49 -29 -19 -67 -49 -83 -68 -16 -18 -51 -50
-78 -72 -57 -46 -256 -247 -269 -273 -6 -10 -29 -38 -51 -63 -100 -108 -290
-389 -351 -517 -13 -29 -38 -71 -55 -94 -16 -23 -30 -46 -30 -51 0 -5 -34 -82
-76 -171 -42 -89 -85 -184 -94 -212 -10 -27 -23 -63 -29 -80 -10 -29 -57 -175
-65 -205 -3 -8 -13 -44 -24 -80 -21 -69 -51 -185 -78 -310 -22 -100 -54 -250
-59 -275 -8 -39 -36 -282 -46 -400 -14 -149 -4 -811 12 -840 3 -5 7 -28 8 -50
1 -22 7 -80 13 -130 6 -49 12 -106 14 -125 2 -19 6 -41 10 -50 3 -8 12 -46 19
-85 8 -38 26 -124 40 -190 15 -66 31 -145 36 -175 5 -30 13 -64 18 -75 14 -31
56 -161 81 -250 12 -44 30 -98 39 -120 10 -22 22 -56 26 -75 4 -19 31 -82 60
-140 29 -58 56 -116 60 -130 4 -13 32 -67 61 -120 30 -52 54 -100 54 -106 0
-6 13 -29 28 -50 15 -21 53 -82 83 -134 31 -52 84 -132 120 -177 35 -45 93
-121 129 -168 80 -107 387 -418 438 -444 12 -7 44 -31 70 -54 26 -23 77 -59
112 -80 36 -21 80 -51 99 -67 33 -30 289 -160 313 -160 7 0 27 -7 43 -16 64
-34 204 -86 295 -110 252 -66 273 -68 580 -69 307 0 335 3 603 71 95 23 132
37 337 121 151 63 321 156 382 210 21 18 52 39 70 46 18 8 44 25 58 38 14 14
48 42 75 64 28 21 77 64 110 94 33 31 81 74 105 97 74 67 204 213 272 305 84
115 150 205 187 255 17 22 36 56 42 74 7 18 47 92 91 163 43 72 78 136 78 143
0 7 25 62 55 122 69 139 133 312 210 577 15 50 38 126 51 170 14 44 29 116 35
160 6 44 17 100 24 125 38 124 78 437 96 745 10 163 4 489 -11 638 -26 257
-32 309 -47 377 -9 41 -17 83 -18 95 -1 11 -3 20 -4 20 -2 0 -4 7 -6 15 -1 8
-14 71 -29 140 -14 69 -42 181 -62 250 -20 69 -42 145 -49 170 -7 25 -18 59
-25 75 -7 17 -18 53 -25 80 -22 82 -82 234 -134 335 -27 52 -54 113 -61 135
-7 22 -26 59 -41 82 -16 23 -29 44 -29 48 0 4 -14 27 -32 53 -17 25 -44 71
-59 101 -37 77 -149 235 -304 431 -69 87 -232 252 -322 326 -53 43 -108 90
-121 103 -29 27 -159 121 -168 121 -3 0 -36 21 -72 46 -36 25 -91 57 -121 70
-31 14 -72 36 -91 49 -19 14 -61 33 -93 44 -61 21 -190 88 -242 126 -16 11
-61 38 -100 59 -38 21 -82 52 -97 70 -53 60 -140 200 -189 301 -42 88 -59 112
-127 177 -66 63 -87 77 -138 91 -59 17 -94 19 -144 10z m138 -172 c75 -39 153
-150 257 -363 20 -43 48 -89 61 -103 l24 -26 -137 6 c-76 3 -176 8 -223 10
-96 5 -377 -12 -428 -25 -18 -5 -32 -6 -30 -2 2 4 14 29 26 55 12 26 33 63 46
80 14 18 42 67 61 107 58 120 71 141 127 198 82 83 142 101 216 63z m162 -671
c130 -15 164 -21 169 -25 3 -4 -23 -35 -122 -143 -7 -8 -34 -35 -62 -62 -27
-27 -54 -53 -60 -59 -5 -5 -194 -192 -420 -415 -225 -222 -426 -420 -445 -440
-19 -19 -216 -219 -438 -443 -461 -467 -522 -530 -837 -857 -126 -131 -251
-260 -277 -286 -44 -43 -48 -52 -48 -94 0 -69 12 -86 63 -86 24 0 56 8 75 20
28 17 334 320 457 452 22 24 67 69 100 100 33 31 134 133 225 228 91 94 255
260 365 368 240 238 252 249 290 293 17 19 89 91 160 161 72 70 207 205 301
300 94 95 195 196 225 223 30 28 68 66 85 85 17 19 154 155 304 303 267 262
272 268 255 287 -16 18 -16 20 -2 20 26 0 197 -65 289 -109 46 -23 88 -41 93
-41 5 0 41 -20 81 -45 39 -25 76 -45 80 -45 5 0 33 -18 62 -40 29 -22 71 -52
95 -67 67 -44 195 -141 209 -161 7 -9 34 -33 61 -53 40 -31 98 -93 109 -117 2
-4 29 -29 61 -56 32 -26 65 -63 75 -81 9 -18 40 -59 67 -90 49 -57 152 -206
210 -305 17 -28 47 -79 68 -113 45 -71 88 -155 124 -247 14 -36 32 -72 39 -81
8 -8 14 -21 14 -27 0 -7 4 -20 9 -30 13 -27 38 -84 54 -122 13 -33 121 -359
122 -370 0 -3 8 -34 18 -70 9 -36 26 -110 37 -165 12 -55 26 -118 32 -140 22
-84 68 -439 68 -532 0 -34 4 -64 8 -67 20 -12 10 -618 -13 -789 -2 -16 -6 -65
-9 -110 -7 -86 -29 -244 -49 -337 -6 -30 -12 -59 -13 -65 -3 -32 -17 -96 -29
-135 -8 -25 -17 -65 -20 -90 -9 -61 -47 -185 -90 -299 -19 -51 -35 -103 -35
-115 0 -12 -18 -59 -40 -105 -22 -45 -40 -88 -40 -94 0 -39 -192 -405 -303
-575 -35 -53 -77 -120 -95 -147 -17 -28 -45 -64 -63 -80 -17 -17 -48 -55 -69
-86 -34 -49 -119 -138 -300 -313 -57 -55 -123 -106 -137 -106 -4 0 -21 -14
-38 -30 -60 -58 -161 -120 -368 -224 -248 -125 -381 -170 -627 -212 -164 -29
-471 -26 -660 5 -80 13 -149 27 -155 31 -5 4 -31 10 -56 14 -26 4 -80 20 -120
35 -128 50 -410 190 -446 221 -18 17 -40 30 -47 30 -28 0 -325 229 -410 315
-106 108 -174 182 -188 205 -9 14 -42 54 -75 90 -33 36 -70 85 -83 110 -12 25
-33 56 -45 70 -13 14 -34 44 -47 67 -13 23 -54 89 -91 147 -37 57 -83 141
-102 186 -19 46 -41 90 -48 99 -16 18 -67 128 -67 144 0 5 -18 51 -41 103 -22
51 -54 137 -70 191 -29 97 -65 214 -74 243 -3 8 -19 69 -35 135 -17 66 -35
136 -40 155 -6 19 -17 89 -25 155 -9 66 -17 127 -20 135 -4 13 -17 128 -44
375 -3 33 -6 204 -5 380 0 335 -2 303 59 739 14 101 28 129 89 175 23 17 24
18 131 135 88 96 399 411 425 429 9 7 29 30 45 52 17 22 55 63 85 92 30 29 60
58 65 64 6 7 37 37 70 68 69 65 100 97 251 252 60 63 122 125 136 139 15 14
164 162 331 330 167 168 321 322 343 342 21 20 63 60 92 90 29 29 62 62 73 73
11 11 44 45 73 75 104 108 457 445 479 457 27 15 31 15 137 3z m-430 -4 c0 -3
-28 -31 -62 -63 -35 -32 -76 -73 -93 -92 -16 -19 -41 -44 -54 -55 -14 -12 -70
-66 -126 -121 -56 -55 -126 -123 -156 -152 -30 -28 -62 -60 -71 -70 -14 -14
-338 -341 -509 -512 -14 -14 -41 -39 -60 -56 -19 -16 -54 -53 -79 -80 -25 -28
-58 -60 -75 -72 -16 -11 -41 -39 -55 -61 -14 -23 -34 -46 -45 -52 -11 -6 -83
-77 -160 -157 -77 -81 -205 -213 -285 -294 -80 -81 -174 -179 -210 -219 -36
-40 -85 -92 -110 -116 -25 -23 -63 -68 -85 -98 -60 -83 -85 -82 -49 2 20 49
46 126 79 242 15 52 40 120 56 150 15 30 42 93 59 140 18 47 47 110 65 140 18
30 45 84 60 120 16 36 36 74 45 85 9 11 27 38 40 60 50 85 143 225 150 225 5
0 22 24 38 54 17 29 37 60 45 68 21 21 110 129 129 156 9 13 49 53 89 89 41
37 77 74 81 84 4 9 23 30 44 46 20 15 63 51 95 80 31 28 72 59 91 68 18 10 53
34 78 54 58 48 136 101 148 101 5 0 36 18 68 40 33 22 63 40 68 40 5 0 58 24
117 54 156 80 322 129 536 161 49 7 91 13 96 14 4 0 7 -1 7 -3z"/>
<path d="M6998 6843 c-51 -59 -77 -175 -104 -473 -8 -91 -18 -194 -23 -230 -5
-36 -12 -91 -15 -123 -3 -32 -10 -66 -15 -75 -4 -9 -11 -55 -15 -102 -4 -47
-12 -112 -18 -145 -13 -72 -14 -80 -22 -175 -4 -41 -12 -100 -17 -132 -5 -31
-12 -80 -14 -110 -3 -29 -10 -89 -16 -133 -6 -44 -12 -152 -12 -240 -2 -139 0
-164 16 -188 13 -21 25 -27 51 -27 77 0 94 30 106 183 13 171 22 227 36 242 7
7 49 18 93 24 44 7 90 14 103 17 58 14 165 29 180 26 19 -4 40 -62 58 -165 24
-129 80 -237 124 -237 35 0 113 73 118 112 5 31 -45 293 -78 408 -15 55 -53
225 -80 355 -7 39 -18 79 -23 90 -5 11 -30 92 -56 180 -26 88 -49 167 -52 175
-4 8 -7 20 -9 25 -1 6 -18 71 -38 145 -20 74 -54 210 -76 302 -54 230 -84 288
-150 288 -23 0 -43 -7 -52 -17z m75 -490 c3 -16 7 -35 9 -43 3 -8 8 -31 12
-50 4 -19 16 -64 27 -100 32 -112 47 -171 79 -310 18 -74 34 -142 37 -150 4
-8 7 -18 8 -22 2 -5 3 -9 5 -10 3 -5 8 -28 28 -120 21 -96 20 -98 -38 -98 -16
0 -57 -6 -92 -14 -35 -8 -91 -17 -125 -21 l-63 -6 5 43 c3 24 12 113 21 198 8
85 17 157 19 160 2 4 7 53 10 111 3 57 10 138 15 179 5 41 12 123 16 182 6
104 16 129 27 71z"/>
<path d="M5765 6623 c-43 -5 -182 -33 -199 -39 -8 -3 -16 3 -19 15 -4 17 -13
21 -44 21 -65 0 -76 -15 -81 -114 -3 -49 0 -97 6 -113 6 -16 16 -116 22 -223
6 -107 17 -262 25 -345 8 -82 17 -195 20 -250 3 -55 14 -253 25 -440 11 -187
23 -401 27 -475 l8 -135 65 -3 c36 -1 71 2 78 6 11 7 11 46 2 213 -6 112 -15
251 -20 309 -5 58 -12 171 -15 253 l-7 147 24 0 c35 0 44 -10 57 -65 7 -27 45
-108 84 -179 40 -71 93 -170 119 -220 26 -50 73 -124 103 -165 30 -41 55 -78
55 -83 0 -5 9 -29 20 -53 45 -98 123 -98 160 0 28 74 1 198 -59 274 -16 20
-39 55 -51 79 -12 23 -26 45 -31 48 -5 3 -22 31 -38 62 -16 31 -50 84 -76 117
-40 52 -115 184 -115 204 0 3 22 14 48 23 106 38 161 112 210 288 11 39 6 359
-7 420 -13 64 -16 79 -26 139 -4 24 -23 76 -41 115 -19 39 -34 75 -34 81 0 20
-66 75 -101 85 -32 10 -131 11 -194 3z m168 -308 c75 -35 82 -56 82 -255 0
-147 -1 -157 -25 -199 -14 -25 -39 -53 -55 -63 -33 -19 -195 -42 -260 -36
l-40 3 -11 175 c-23 354 -24 388 -5 393 9 3 71 5 137 6 110 1 127 -1 177 -24z"/>
<path d="M4840 6474 c-47 -7 -116 -18 -155 -24 -38 -6 -92 -16 -119 -22 l-49
-11 7 -86 c11 -135 13 -141 50 -141 17 0 47 4 67 9 21 5 41 6 47 2 12 -8 29
-190 42 -446 11 -238 32 -1127 26 -1133 -3 -2 -32 -6 -66 -9 l-61 -6 6 -111
c4 -61 10 -114 14 -119 12 -12 287 12 363 32 40 11 78 28 85 37 15 20 18 181
4 203 -7 11 -25 12 -85 6 -42 -3 -76 -5 -76 -3 0 1 -5 201 -10 443 -8 370 -33
841 -57 1077 l-5 56 48 7 c80 11 75 2 72 132 l-3 118 -30 2 c-16 0 -68 -5
-115 -13z"/>
<path d="M4024 6432 c-64 -47 -110 -128 -130 -232 -2 -14 -7 -32 -11 -40 -3
-8 -7 -21 -9 -29 -38 -190 -74 -417 -75 -481 0 -8 -4 -33 -10 -55 -5 -22 -13
-87 -19 -145 -5 -58 -11 -118 -14 -135 -3 -16 -10 -77 -16 -135 -5 -58 -15
-132 -20 -165 -5 -33 -10 -85 -11 -115 -1 -64 -1 -64 -29 60 -11 52 -30 131
-40 175 -11 44 -24 105 -29 135 -18 107 -49 265 -59 305 -6 22 -20 90 -31 150
-73 390 -85 434 -139 533 -35 64 -84 102 -133 102 -30 0 -76 -35 -104 -80 -34
-54 -75 -180 -75 -231 l0 -44 23 32 c12 18 25 33 28 33 3 0 9 -213 13 -472 4
-297 12 -527 21 -618 8 -80 19 -203 25 -275 5 -71 14 -155 20 -185 5 -30 15
-98 21 -150 6 -52 12 -105 14 -117 10 -70 29 -78 90 -37 62 41 76 64 71 109
-4 38 -14 122 -36 300 -5 44 -15 181 -20 305 -6 124 -13 245 -15 270 -16 159
-41 790 -32 790 9 0 34 -90 51 -180 8 -41 17 -86 20 -100 17 -68 39 -172 71
-335 39 -193 78 -375 94 -440 6 -22 20 -78 31 -125 38 -165 80 -309 98 -342
13 -23 27 -34 46 -36 27 -3 76 21 76 38 0 5 5 21 12 37 14 35 13 32 22 68 4
17 14 57 22 90 8 33 21 125 29 205 8 80 21 204 29 275 8 72 20 175 25 229 21
192 41 352 56 451 9 55 18 120 22 145 10 78 22 80 23 5 1 -38 5 -115 10 -170
26 -274 47 -865 49 -1358 l1 -168 88 3 87 3 -2 215 c-1 118 -5 256 -8 305 -14
189 -29 657 -41 1210 -3 171 -10 330 -16 355 -19 92 -87 117 -164 62z"/>
<path d="M3108 6320 c-11 -38 -10 -56 3 -43 6 6 9 23 7 39 l-3 29 -7 -25z"/>
</g>
</svg>
